<?xml version="1.0" encoding="utf-8"?>
<!-- Generator: Adobe Illustrator 20.1.0, SVG Export Plug-In . SVG Version: 6.00 Build 0)  -->
<!DOCTYPE svg PUBLIC "-//W3C//DTD SVG 1.1//EN" "http://www.w3.org/Graphics/SVG/1.1/DTD/svg11.dtd">
<svg version="1.1" xmlns="http://www.w3.org/2000/svg" xmlns:xlink="http://www.w3.org/1999/xlink" x="0px" y="0px"
	 viewBox="0 0 388.7 49.2" enable-background="new 0 0 388.7 49.2" xml:space="preserve" width="395px" height="50px">
<g id="Calque_3">
	<g>
		<path fill="#333333" d="M85.3,37.9c-5-9.4-5.8-10.8-7.1-11.2h-4.4v11.2h-3.6V11.9c2.5-0.1,5.3-0.2,8-0.2c5,0,8.1,2.8,8.1,6.8
			c0,4.1-2.9,6.2-4.6,7c1.5,0.8,2.4,2.1,7.9,12.5H85.3z M76.6,14.6h-2.8v9.2h5.7c1.7-0.7,3.1-2.6,3.1-4.6
			C82.6,16.3,80.5,14.6,76.6,14.6z"/>
		<path fill="#333333" d="M107,28.7H94.4c0,3.6,2,6.7,6,6.7c2.2,0,4.2-0.5,6.3-1.5l-0.2,2.9c-2,1-4.1,1.5-6.8,1.5
			c-5.4,0-8.6-4.2-8.6-9.7c0-6.2,3.9-10.3,8.8-10.3c4.7,0,7.3,3.4,7.3,7.7C107.2,26.8,107.1,28.1,107,28.7z M99.4,21.1
			c-2.7,0-4.4,2.6-4.8,5.1h9.4C104,23.3,102.2,21.1,99.4,21.1z"/>
		<path fill="#333333" d="M126.1,37.9c-0.5,0.2-1.3,0.3-2,0.3c-1.5,0-2.6-0.7-2.9-2.3H121c-1.3,1.3-3.2,2.4-5.8,2.4
			c-3,0-5.3-2-5.3-4.9c0-3.5,3-6.7,11-7.1V24c0-1.7-1-2.8-2.8-2.8c-1.9,0-4.4,0.9-6.5,2.3l-0.3-2.6c2.1-1.5,4.8-2.5,7.9-2.5
			c3.1,0,5.2,1.8,5.2,4.9c0,1.2-0.1,8.9-0.1,9.7c0,1.5,0.7,2.3,2.2,2.4L126.1,37.9z M120.8,28.8c-6.2,0.3-7.6,2.6-7.6,4.1
			c0,1.6,1.1,2.7,3.3,2.7c1.7,0,3.4-0.8,4.4-1.7V28.8z"/>
		<path fill="#333333" d="M143,22.7c-1.3-0.7-3.2-1.4-5.1-1.4c-3.4,0-5.8,3.1-5.8,6.8c0,4.1,2.1,7.2,6,7.2c2,0,3.7-0.6,5.3-1.3
			l-0.2,3c-1.8,0.9-3.8,1.3-5.9,1.3c-5.5,0-8.7-4.1-8.7-9.6c0-6,3.9-10.3,9.5-10.3c2.2,0,3.9,0.6,5.3,1.4L143,22.7z"/>
		<path fill="#333333" d="M152.5,38.3c-3.1,0-5-2-5-4.8c0-1.2,0-6.7,0-10.3v-1.6h-1.7v-1.4l4.6-5.1h0.4v3.7h6.1v2.8h-6.1
			c0,0,0,7.4,0,10.7c0,2,1,3,3,3c1,0,2.1-0.1,3.3-0.5v2.5C155.8,37.9,154.2,38.3,152.5,38.3z"/>
		<path fill="#333333" d="M184.8,37.9c-5-9.4-5.8-10.8-7.1-11.2h-4.4v11.2h-3.6V11.9c2.5-0.1,5.3-0.2,8-0.2c5,0,8.1,2.8,8.1,6.8
			c0,4.1-2.9,6.2-4.6,7c1.5,0.8,2.4,2.1,7.9,12.5H184.8z M176.1,14.6h-2.8v9.2h5.7c1.7-0.7,3.1-2.6,3.1-4.6
			C182,16.3,180,14.6,176.1,14.6z"/>
		<path fill="#333333" d="M199.3,38.3c-5.3,0-8.7-4.3-8.7-9.7c0-5.8,3.8-10.2,9.5-10.2c5.3,0,8.7,4.3,8.7,9.7
			C208.8,33.9,205,38.3,199.3,38.3z M199.6,21.2c-3.4,0-5.6,3.1-5.6,6.9c0,3.9,2.2,7.4,5.7,7.4c3.4,0,5.6-3.1,5.6-7
			C205.3,24.7,203.2,21.2,199.6,21.2z"/>
		<path fill="#333333" d="M230.8,37.9c-0.6,0.2-1.3,0.3-2.2,0.3c-1.6,0-2.6-1-2.9-2.4h-0.2c-1.6,1.6-3.6,2.5-6.2,2.5
			c-3.4,0-6.3-2.3-6.3-6.1V18.8h3.5V31c0,3,1.8,4.5,4.4,4.5c1.8,0,3.1-0.7,4.4-1.7V18.8h3.4v14.2c0,1.5,0.7,2.3,2.2,2.4L230.8,37.9z
			"/>
		<path fill="#333333" d="M240.1,38.3c-3.1,0-5-2-5-4.8c0-1.2,0-6.7,0-10.3v-1.6h-1.7v-1.4l4.6-5.1h0.4v3.7h6.1v2.8h-6.1
			c0,0,0,7.4,0,10.7c0,2,1,3,3,3c1,0,2.1-0.1,3.3-0.5v2.5C243.4,37.9,241.8,38.3,240.1,38.3z"/>
		<path fill="#333333" d="M262.6,28.7h-12.6c0,3.6,2,6.7,6,6.7c2.2,0,4.2-0.5,6.3-1.5l-0.2,2.9c-2,1-4.1,1.5-6.8,1.5
			c-5.4,0-8.6-4.2-8.6-9.7c0-6.2,3.9-10.3,8.8-10.3c4.7,0,7.3,3.4,7.3,7.7C262.8,26.8,262.6,28.1,262.6,28.7z M255,21.1
			c-2.7,0-4.4,2.6-4.8,5.1h9.4C259.5,23.3,257.8,21.1,255,21.1z"/>
		<path fill="#333333" d="M276.8,22.6c-1-0.5-2.1-0.8-3.3-0.8c-1.2,0-2.4,0.6-3.1,1.4v14.8H267V19l3.3-0.3l-0.1,2.8h0.1
			c1-1.8,2.6-3,4.6-3c1,0,1.8,0.2,2.5,0.6L276.8,22.6z"/>
		<path fill="#333333" d="M294.4,38.4c-2.5,0-4.9-0.5-6.9-1.8l0.7-3.3c2,1.3,4.4,2,6.8,2c3.1,0,5.3-1.8,5.3-4.1c0-2.5-1.7-4-4.8-5.1
			c-5-1.8-7.1-3.9-7.1-7.5c0-4.3,4-7.2,8.8-7.2c2.3,0,4.6,0.7,6.2,1.4l-0.5,3.1c-1.5-0.8-4.1-1.5-6.2-1.5c-2.7,0-4.7,1.5-4.7,3.6
			c0,2.6,1.8,3.6,5,4.8c4.8,1.8,6.9,4.1,6.9,7.7C303.9,34.9,299.9,38.4,294.4,38.4z"/>
		<path fill="#333333" d="M322.8,28.7h-12.6c0,3.6,2,6.7,6,6.7c2.2,0,4.2-0.5,6.3-1.5l-0.2,2.9c-2,1-4.1,1.5-6.8,1.5
			c-5.4,0-8.6-4.2-8.6-9.7c0-6.2,3.9-10.3,8.8-10.3c4.7,0,7.3,3.4,7.3,7.7C323,26.8,322.9,28.1,322.8,28.7z M315.2,21.1
			c-2.7,0-4.4,2.6-4.8,5.1h9.4C319.8,23.3,318,21.1,315.2,21.1z"/>
		<path fill="#333333" d="M337,22.6c-1-0.5-2.1-0.8-3.3-0.8c-1.2,0-2.4,0.6-3.1,1.4v14.8h-3.4V19l3.3-0.3l-0.1,2.8h0.1
			c1-1.8,2.6-3,4.6-3c1,0,1.8,0.2,2.5,0.6L337,22.6z"/>
		<path fill="#333333" d="M348.4,38.1h-2.8l-7.4-19.3h3.9l4.1,11.4c0.5,1.5,1,4.2,1,4.2s0.5-2.6,1-4.2l3.9-11.4h3.6L348.4,38.1z"/>
		<path fill="#333333" d="M373.5,28.7h-12.6c0,3.6,2,6.7,6,6.7c2.2,0,4.2-0.5,6.3-1.5l-0.2,2.9c-2,1-4.1,1.5-6.8,1.5
			c-5.4,0-8.6-4.2-8.6-9.7c0-6.2,3.9-10.3,8.8-10.3c4.7,0,7.3,3.4,7.3,7.7C373.7,26.8,373.6,28.1,373.5,28.7z M366,21.1
			c-2.7,0-4.4,2.6-4.8,5.1h9.4C370.5,23.3,368.8,21.1,366,21.1z"/>
		<path fill="#333333" d="M387.8,22.6c-1-0.5-2.1-0.8-3.3-0.8c-1.2,0-2.4,0.6-3.1,1.4v14.8H378V19l3.3-0.3l-0.1,2.8h0.1
			c1-1.8,2.6-3,4.6-3c1,0,1.8,0.2,2.5,0.6L387.8,22.6z"/>
	</g>
</g>
<g id="Calque_2">
	<g>
		<path fill-rule="evenodd" clip-rule="evenodd" fill="#D0021B" d="M25.1,3.6c3.1,0,4.5,1.8,5,4.2c0.2,1.1,0.2,2.3,0.8,3.1
			c0.9,1.1,2.5,1,4.2,1.2c2.1,0.3,3.7,1.2,4.4,2.8c0.4,0.9,0.4,2.3,0,3.2c-0.7,1.9-2.3,2.7-4.7,3c-1.6,0.2-2.9,0.1-3.7,1.1
			c-0.7,0.8-0.7,1.9-1,3.1c-0.5,2.3-1.8,4-4.4,4.3c-2.8,0.3-5.3-2.5-4.5-5.4c1.4-5.4,8.5-1.4,9.4-6.5c0.3-1.6-0.1-3.5-0.9-4.4
			c-1.2-1.4-4.7-0.9-6.3-1.8c-2.5-1.4-3.3-5.2-0.7-7.1C23.4,4,24.1,3.9,25.1,3.6z"/>
		<circle fill-rule="evenodd" clip-rule="evenodd" fill="#020202" cx="16" cy="16.7" r="4.4"/>
		<circle fill-rule="evenodd" clip-rule="evenodd" fill="#020202" cx="5.7" cy="25.4" r="4.4"/>
		<circle fill-rule="evenodd" clip-rule="evenodd" fill="#020202" cx="44.9" cy="25.4" r="4.4"/>
		<path fill-rule="evenodd" clip-rule="evenodd" fill="#D0021B" d="M47.7,33.9H2.9c-0.9,0-1.6,0.7-1.6,1.6v5.9
			c0,0.9,0.7,1.6,1.6,1.6h44.8c0.9,0,1.6-0.7,1.6-1.6v-5.9C49.3,34.6,48.6,33.9,47.7,33.9z"/>
		<path fill-rule="evenodd" clip-rule="evenodd" d="M5.3,36.1c-0.9,0-1.6,0.7-1.6,1.6v1.5c0,0.9,0.7,1.6,1.6,1.6s1.6-0.7,1.6-1.6
			v-1.5C6.9,36.8,6.2,36.1,5.3,36.1z"/>
	</g>
</g>
</svg>
